<mxfile host="Electron" agent="Mozilla/5.0 (Macintosh; Intel Mac OS X 10_15_7) AppleWebKit/537.36 (KHTML, like Gecko) draw.io/27.0.9 Chrome/134.0.6998.205 Electron/35.4.0 Safari/537.36" version="27.0.9">
  <diagram name="Distributed Tracing Architecture" id="distributed-tracing">
    <mxGraphModel dx="1106" dy="691" grid="1" gridSize="10" guides="1" tooltips="1" connect="1" arrows="1" fold="1" page="1" pageScale="1" pageWidth="1200" pageHeight="800" math="0" shadow="0">
      <root>
        <mxCell id="0" />
        <mxCell id="1" parent="0" />
        <mxCell id="main-app" value="Trace Injection Advisor" style="rounded=1;whiteSpace=wrap;html=1;fillColor=#e1d5e7;strokeColor=#9673a6;fontSize=16;fontStyle=1;verticalAlign=top;spacingTop=10;" parent="1" vertex="1">
          <mxGeometry x="80" y="40" width="1040" height="720" as="geometry" />
        </mxCell>
        <mxCell id="user-interface" value="User Interface&#xa;(Tree Diagram)" style="rounded=1;whiteSpace=wrap;html=1;fillColor=#dae8fc;strokeColor=#6c8ebf;fontSize=14;fontStyle=1;" parent="1" vertex="1">
          <mxGeometry x="500" y="80" width="200" height="80" as="geometry" />
        </mxCell>
        <mxCell id="call-tracer-section" value="Call Tracer" style="rounded=1;whiteSpace=wrap;html=1;fillColor=#d5e8d4;strokeColor=#82b366;fontSize=14;fontStyle=1;verticalAlign=top;spacingTop=10;" parent="1" vertex="1">
          <mxGeometry x="120" y="200" width="460" height="320" as="geometry" />
        </mxCell>
        <mxCell id="_ySLYXuoBXfLbxMS13eO-1" style="edgeStyle=orthogonalEdgeStyle;rounded=0;orthogonalLoop=1;jettySize=auto;html=1;entryX=0.75;entryY=0;entryDx=0;entryDy=0;" edge="1" parent="1" source="user-interface" target="call-tracer-class">
          <mxGeometry relative="1" as="geometry" />
        </mxCell>
        <mxCell id="_ySLYXuoBXfLbxMS13eO-2" value="Iterate trace call paths" style="edgeLabel;html=1;align=center;verticalAlign=middle;resizable=0;points=[];" vertex="1" connectable="0" parent="_ySLYXuoBXfLbxMS13eO-1">
          <mxGeometry x="-0.1179" y="-1" relative="1" as="geometry">
            <mxPoint as="offset" />
          </mxGeometry>
        </mxCell>
        <mxCell id="main-function" value="main()" style="rounded=1;whiteSpace=wrap;html=1;fillColor=#fff2cc;strokeColor=#d6b656;fontSize=12;fontStyle=1;" parent="1" vertex="1">
          <mxGeometry x="140" y="240" width="120" height="60" as="geometry" />
        </mxCell>
        <mxCell id="call-tracer-class" value="CallTracer Class" style="rounded=1;whiteSpace=wrap;html=1;fillColor=#fff2cc;strokeColor=#d6b656;fontSize=12;fontStyle=1;" parent="1" vertex="1">
          <mxGeometry x="320" y="240" width="140" height="60" as="geometry" />
        </mxCell>
        <mxCell id="parse-file" value="Parse File" style="rounded=1;whiteSpace=wrap;html=1;fillColor=#f8cecc;strokeColor=#b85450;fontSize=10;" parent="1" vertex="1">
          <mxGeometry x="480" y="250" width="80" height="40" as="geometry" />
        </mxCell>
        <mxCell id="build-ast" value="Build AST" style="rounded=1;whiteSpace=wrap;html=1;fillColor=#f8cecc;strokeColor=#b85450;fontSize=10;" parent="1" vertex="1">
          <mxGeometry x="260" y="330" width="80" height="40" as="geometry" />
        </mxCell>
        <mxCell id="find-entry" value="Find Entry Point" style="rounded=1;whiteSpace=wrap;html=1;fillColor=#f8cecc;strokeColor=#b85450;fontSize=10;" parent="1" vertex="1">
          <mxGeometry x="360" y="330" width="80" height="40" as="geometry" />
        </mxCell>
        <mxCell id="trace-calls" value="Trace Call Paths" style="rounded=1;whiteSpace=wrap;html=1;fillColor=#f8cecc;strokeColor=#b85450;fontSize=10;" parent="1" vertex="1">
          <mxGeometry x="460" y="330" width="80" height="40" as="geometry" />
        </mxCell>
        <mxCell id="renderers" value="Renderers" style="rounded=1;whiteSpace=wrap;html=1;fillColor=#ffe6cc;strokeColor=#d79b00;fontSize=12;fontStyle=1;verticalAlign=top;spacingTop=10;align=left;" parent="1" vertex="1">
          <mxGeometry x="160" y="400" width="380" height="80" as="geometry" />
        </mxCell>
        <mxCell id="renderer-module" value="Renderer Module" style="rounded=1;whiteSpace=wrap;html=1;fillColor=#fff2cc;strokeColor=#d6b656;fontSize=10;" parent="1" vertex="1">
          <mxGeometry x="280" y="430" width="140" height="40" as="geometry" />
        </mxCell>
        <mxCell id="source-analyzer-section" value="Source Code Analyzer" style="rounded=1;whiteSpace=wrap;html=1;fillColor=#d5e8d4;strokeColor=#82b366;fontSize=14;fontStyle=1;verticalAlign=top;spacingTop=10;" parent="1" vertex="1">
          <mxGeometry x="620" y="200" width="460" height="320" as="geometry" />
        </mxCell>
        <mxCell id="source-analyzer-class" value="SourceCodeAnalyzer&lt;div&gt;Class&lt;/div&gt;" style="rounded=1;whiteSpace=wrap;html=1;fillColor=#fff2cc;strokeColor=#d6b656;fontSize=12;fontStyle=1;" parent="1" vertex="1">
          <mxGeometry x="680" y="240" width="160" height="60" as="geometry" />
        </mxCell>
        <mxCell id="parse-selected" value="Parse Selected File" style="rounded=1;whiteSpace=wrap;html=1;fillColor=#f8cecc;strokeColor=#b85450;fontSize=10;" parent="1" vertex="1">
          <mxGeometry x="660" y="330" width="100" height="40" as="geometry" />
        </mxCell>
        <mxCell id="build-prompt" value="Build GenAI Prompt" style="rounded=1;whiteSpace=wrap;html=1;fillColor=#f8cecc;strokeColor=#b85450;fontSize=10;" parent="1" vertex="1">
          <mxGeometry x="780" y="330" width="100" height="40" as="geometry" />
        </mxCell>
        <mxCell id="invoke-genai" value="Invoke GenAI" style="rounded=1;whiteSpace=wrap;html=1;fillColor=#f8cecc;strokeColor=#b85450;fontSize=10;" parent="1" vertex="1">
          <mxGeometry x="900" y="330" width="80" height="40" as="geometry" />
        </mxCell>
        <mxCell id="genai-modules" value="GenAI Modules" style="rounded=1;whiteSpace=wrap;html=1;fillColor=#ffe6cc;strokeColor=#d79b00;fontSize=12;fontStyle=1;verticalAlign=top;spacingTop=0;align=center;" parent="1" vertex="1">
          <mxGeometry x="660" y="400" width="140" height="80" as="geometry" />
        </mxCell>
        <mxCell id="genai-module" value="GenAI Module" style="rounded=1;whiteSpace=wrap;html=1;fillColor=#fff2cc;strokeColor=#d6b656;fontSize=10;" parent="1" vertex="1">
          <mxGeometry x="680" y="430" width="100" height="40" as="geometry" />
        </mxCell>
        <mxCell id="formatters" value="Formatters" style="rounded=1;whiteSpace=wrap;html=1;fillColor=#ffe6cc;strokeColor=#d79b00;fontSize=12;fontStyle=1;verticalAlign=top;spacingTop=0;" parent="1" vertex="1">
          <mxGeometry x="840" y="400" width="140" height="80" as="geometry" />
        </mxCell>
        <mxCell id="formatter-module" value="Markdown Formatter" style="rounded=1;whiteSpace=wrap;html=1;fillColor=#fff2cc;strokeColor=#d6b656;fontSize=10;" parent="1" vertex="1">
          <mxGeometry x="860" y="430" width="100" height="40" as="geometry" />
        </mxCell>
        <mxCell id="main-to-class" value="Initialize" style="edgeStyle=orthogonalEdgeStyle;rounded=0;orthogonalLoop=1;jettySize=auto;html=1;strokeColor=#82b366;strokeWidth=2;" parent="1" source="main-function" target="call-tracer-class" edge="1">
          <mxGeometry y="-10" relative="1" as="geometry">
            <mxPoint as="offset" />
          </mxGeometry>
        </mxCell>
        <mxCell id="class-to-parse" value="" style="edgeStyle=orthogonalEdgeStyle;rounded=0;orthogonalLoop=1;jettySize=auto;html=1;strokeColor=#b85450;strokeWidth=1;" parent="1" source="call-tracer-class" target="parse-file" edge="1">
          <mxGeometry relative="1" as="geometry" />
        </mxCell>
        <mxCell id="class-to-ast" value="" style="edgeStyle=orthogonalEdgeStyle;rounded=0;orthogonalLoop=1;jettySize=auto;html=1;strokeColor=#b85450;strokeWidth=1;" parent="1" source="call-tracer-class" target="build-ast" edge="1">
          <mxGeometry relative="1" as="geometry">
            <Array as="points">
              <mxPoint x="390" y="310" />
              <mxPoint x="300" y="310" />
            </Array>
          </mxGeometry>
        </mxCell>
        <mxCell id="class-to-find" value="" style="edgeStyle=orthogonalEdgeStyle;rounded=0;orthogonalLoop=1;jettySize=auto;html=1;strokeColor=#b85450;strokeWidth=1;" parent="1" source="call-tracer-class" target="find-entry" edge="1">
          <mxGeometry relative="1" as="geometry">
            <Array as="points">
              <mxPoint x="390" y="310" />
              <mxPoint x="400" y="310" />
            </Array>
          </mxGeometry>
        </mxCell>
        <mxCell id="class-to-trace" value="" style="edgeStyle=orthogonalEdgeStyle;rounded=0;orthogonalLoop=1;jettySize=auto;html=1;strokeColor=#b85450;strokeWidth=1;" parent="1" source="call-tracer-class" target="trace-calls" edge="1">
          <mxGeometry relative="1" as="geometry">
            <Array as="points">
              <mxPoint x="390" y="310" />
              <mxPoint x="500" y="310" />
            </Array>
          </mxGeometry>
        </mxCell>
        <mxCell id="trace-to-renderer" value="Render Output" style="edgeStyle=orthogonalEdgeStyle;rounded=0;orthogonalLoop=1;jettySize=auto;html=1;strokeColor=#d79b00;strokeWidth=2;" parent="1" source="trace-calls" target="renderer-module" edge="1">
          <mxGeometry x="-0.0476" relative="1" as="geometry">
            <Array as="points">
              <mxPoint x="500" y="390" />
              <mxPoint x="350" y="390" />
            </Array>
            <mxPoint as="offset" />
          </mxGeometry>
        </mxCell>
        <mxCell id="renderer-to-ui" value="Display Tree" style="edgeStyle=orthogonalEdgeStyle;rounded=0;orthogonalLoop=1;jettySize=auto;html=1;strokeColor=#6c8ebf;strokeWidth=2;" parent="1" source="renderer-module" target="user-interface" edge="1">
          <mxGeometry relative="1" as="geometry" />
        </mxCell>
        <mxCell id="ui-to-analyzer" value="Function Selection" style="edgeStyle=orthogonalEdgeStyle;rounded=0;orthogonalLoop=1;jettySize=auto;html=1;strokeColor=#6c8ebf;strokeWidth=2;" parent="1" source="user-interface" target="source-analyzer-class" edge="1">
          <mxGeometry relative="1" as="geometry" />
        </mxCell>
        <mxCell id="analyzer-to-parse" value="" style="edgeStyle=orthogonalEdgeStyle;rounded=0;orthogonalLoop=1;jettySize=auto;html=1;strokeColor=#b85450;strokeWidth=1;" parent="1" source="source-analyzer-class" target="parse-selected" edge="1">
          <mxGeometry relative="1" as="geometry" />
        </mxCell>
        <mxCell id="analyzer-to-prompt" value="" style="edgeStyle=orthogonalEdgeStyle;rounded=0;orthogonalLoop=1;jettySize=auto;html=1;strokeColor=#b85450;strokeWidth=1;" parent="1" source="source-analyzer-class" target="build-prompt" edge="1">
          <mxGeometry relative="1" as="geometry" />
        </mxCell>
        <mxCell id="analyzer-to-genai" value="" style="edgeStyle=orthogonalEdgeStyle;rounded=0;orthogonalLoop=1;jettySize=auto;html=1;strokeColor=#b85450;strokeWidth=1;" parent="1" source="source-analyzer-class" target="invoke-genai" edge="1">
          <mxGeometry relative="1" as="geometry" />
        </mxCell>
        <mxCell id="genai-to-module" value="AI Processing" style="edgeStyle=orthogonalEdgeStyle;rounded=0;orthogonalLoop=1;jettySize=auto;html=1;strokeColor=#d79b00;strokeWidth=2;" parent="1" source="invoke-genai" target="genai-module" edge="1">
          <mxGeometry x="0.3333" relative="1" as="geometry">
            <Array as="points">
              <mxPoint x="940" y="390" />
              <mxPoint x="730" y="390" />
            </Array>
            <mxPoint as="offset" />
          </mxGeometry>
        </mxCell>
        <mxCell id="genai-to-formatter" value="Format&lt;div&gt;Json Response&lt;/div&gt;" style="edgeStyle=orthogonalEdgeStyle;rounded=0;orthogonalLoop=1;jettySize=auto;html=1;strokeColor=#d79b00;strokeWidth=2;" parent="1" source="genai-module" target="formatter-module" edge="1">
          <mxGeometry y="-20" relative="1" as="geometry">
            <mxPoint as="offset" />
          </mxGeometry>
        </mxCell>
        <mxCell id="result-to-ui" value="Display Results" style="edgeStyle=orthogonalEdgeStyle;rounded=0;orthogonalLoop=1;jettySize=auto;html=1;strokeColor=#6c8ebf;strokeWidth=2;" parent="1" source="formatter-module" target="user-interface" edge="1">
          <mxGeometry relative="1" as="geometry">
            <Array as="points">
              <mxPoint x="1020" y="450" />
              <mxPoint x="1020" y="120" />
            </Array>
          </mxGeometry>
        </mxCell>
        <mxCell id="legend" value="Legend" style="rounded=1;whiteSpace=wrap;html=1;fillColor=#f5f5f5;strokeColor=#666666;fontSize=12;fontStyle=1;verticalAlign=top;spacingTop=4;" parent="1" vertex="1">
          <mxGeometry x="120" y="560" width="290" height="140" as="geometry" />
        </mxCell>
        <mxCell id="legend-main" value="Main Components" style="rounded=1;whiteSpace=wrap;html=1;fillColor=#d5e8d4;strokeColor=#82b366;fontSize=10;" parent="1" vertex="1">
          <mxGeometry x="140" y="590" width="100" height="20" as="geometry" />
        </mxCell>
        <mxCell id="legend-class" value="Classes/Functions" style="rounded=1;whiteSpace=wrap;html=1;fillColor=#fff2cc;strokeColor=#d6b656;fontSize=10;" parent="1" vertex="1">
          <mxGeometry x="140" y="620" width="100" height="20" as="geometry" />
        </mxCell>
        <mxCell id="legend-sub" value="Sub-modules" style="rounded=1;whiteSpace=wrap;html=1;fillColor=#ffe6cc;strokeColor=#d79b00;fontSize=10;" parent="1" vertex="1">
          <mxGeometry x="140" y="650" width="100" height="20" as="geometry" />
        </mxCell>
        <mxCell id="legend-ui" value="User Interface" style="rounded=1;whiteSpace=wrap;html=1;fillColor=#dae8fc;strokeColor=#6c8ebf;fontSize=10;" parent="1" vertex="1">
          <mxGeometry x="290" y="620" width="100" height="20" as="geometry" />
        </mxCell>
        <mxCell id="_ySLYXuoBXfLbxMS13eO-3" value="Actions" style="rounded=1;whiteSpace=wrap;html=1;fillColor=#f8cecc;strokeColor=#b85450;fontSize=10;" vertex="1" parent="1">
          <mxGeometry x="290" y="590" width="100" height="20" as="geometry" />
        </mxCell>
      </root>
    </mxGraphModel>
  </diagram>
</mxfile>
